# xmcd
#
# Track frame offsets:
# 150
# 16478
# 30798
# 47906
# 62656
# 75848
# 90619
# 101435
# 115086
# 126970
# 138806
# 144409
# 173619
# 180260
# 195802
#
# Disc length: 2687 seconds
#
#
# Revision: 0
# Processed by: cddbd v1.5.2PL0 Copyright (c) Steve Scherf et al.
# Submitted via: FreeRIP 2.941 
#
DISCID=a70a7d0f
DTITLE=Hank Williams - The Hits...Like Never Before
DYEAR=2009
DGENRE=Country
TTITLE0=Cold, Cold Heart
TTITLE1=Move It On Over
TTITLE2=Wedding Bells
TTITLE3=Long Gone Lonesome Blues
TTITLE4=Hey, Good Lookin'
TTITLE5=I'm So Lonesome I Could Cry
TTITLE6=Mind Your Own Business
TTITLE7=A Mansion On The Hill
TTITLE8=Moanin' The Blues
TTITLE9=I Can't Help It (If I'm Still In Love With You)
TTITLE10=Love Sick Blues (intro)
TTITLE11=My Sweet Love Ain't Around
TTITLE12=Jerry Rivers and the Drifting Cowboys play Fire on The Mountain
TTITLE13=I Saw The Light
TTITLE14=closing theme
EXTD=nick was here 6-1-19
EXTT0=
EXTT1=
EXTT2=
EXTT3=
EXTT4=
EXTT5=
EXTT6=
EXTT7=
EXTT8=
EXTT9=
EXTT10=
EXTT11=
EXTT12=
EXTT13=
EXTT14=
PLAYORDER=
